<?xml version="1.0" standalone="no"?><!-- Generator: Gravit.io --><svg xmlns="http://www.w3.org/2000/svg" xmlns:xlink="http://www.w3.org/1999/xlink" style="isolation:isolate" viewBox="544 472 1001.9 306" width="1001.9" height="306"><defs><clipPath id="_clipPath_02iNurRzGQjNumtv4bUkdFDoJGNvaHnK"><rect x="544" y="472" width="1001.9" height="306"/></clipPath></defs><g clip-path="url(#_clipPath_02iNurRzGQjNumtv4bUkdFDoJGNvaHnK)"><g><defs><linearGradient id="_lgradient_0" x1="0" y1="0.5" x2="1" y2="0.5"><stop offset="0%" style="stop-color:#4AC39D"/><stop offset="0.8226555449427853%" style="stop-color:#2CDCA4"/><stop offset="74.39704788857928%" style="stop-color:#25E1A6"/><stop offset="100%" style="stop-color:#00FFAE"/></linearGradient></defs><path d="M 636.793 472 L 757.207 472 C 808.421 472 850 513.579 850 564.793 L 850 685.207 C 850 736.421 808.421 778 757.207 778 L 636.793 778 C 585.579 778 544 736.421 544 685.207 L 544 564.793 C 544 513.579 585.579 472 636.793 472 Z" style="stroke:none;fill:url(#_lgradient_0);stroke-miterlimit:10;"/><clipPath id="_clipPath_Q8WGVrLAuTB3YYB7RPalObtLdZSqQ4b0"><path d="M 636.793 472 L 757.207 472 C 808.421 472 850 513.579 850 564.793 L 850 685.207 C 850 736.421 808.421 778 757.207 778 L 636.793 778 C 585.579 778 544 736.421 544 685.207 L 544 564.793 C 544 513.579 585.579 472 636.793 472 Z" style="stroke:none;fill:url(#_lgradient_0);stroke-miterlimit:10;"/></clipPath><g clip-path="url(#_clipPath_Q8WGVrLAuTB3YYB7RPalObtLdZSqQ4b0)"><linearGradient id="_lgradient_1" x1="0.07191580228643119" y1="0.9476584559190476" x2="0.995408938514301" y2="0.09396855386015246" gradientTransform="matrix(185,0,0,231.871,610,510.555)" gradientUnits="userSpaceOnUse"><stop offset="0%" stop-opacity="1" style="stop-color:rgb(255,255,255)"/><stop offset="98.69565217391305%" stop-opacity="1" style="stop-color:rgb(255,255,255)"/></linearGradient><path d=" M 740.541 645.999 L 795 528.81 L 780.381 522.016 C 756.175 510.767 727.39 521.287 716.141 545.493 L 696.506 587.747 L 638.152 510.555 L 631.722 515.416 C 606.881 534.194 602.731 569.002 622.46 593.095 L 667.96 648.659 L 696.506 587.747 L 740.574 646.043 L 741.157 646.813 C 763.556 688.175 754.536 707.569 714.074 704.972 L 713.475 704.241 L 740.541 645.999 L 740.541 645.999 L 740.541 645.999 Z  M 668.112 648.845 L 629.877 731.122 L 644.497 737.916 C 668.702 749.165 697.487 738.645 708.736 714.439 L 713.471 704.249 L 668.112 648.845 L 668.112 648.845 L 668.112 648.845 Z  M 744.304 542.474 C 744.304 536.068 749.505 530.867 755.912 530.867 C 762.318 530.867 767.518 536.068 767.518 542.474 C 767.518 548.88 762.318 554.081 755.912 554.081 C 749.505 554.081 744.304 548.88 744.304 542.474 Z " fill-rule="evenodd" fill="url(#_lgradient_1)"/></g><path d=" M 947.836 767.284 L 927.259 766.99 L 927.259 726.57 L 949.6 726.864 L 949.6 726.864 Q 955.479 726.864 960.918 724.953 L 960.918 724.953 L 960.918 724.953 Q 966.356 723.043 970.986 719.662 L 970.986 719.662 L 970.986 719.662 Q 975.616 716.282 979.143 711.652 L 979.143 711.652 L 979.143 711.652 Q 982.671 707.022 984.875 701.583 L 984.875 701.583 L 984.875 701.583 Q 978.261 704.376 971.427 707.169 L 971.427 707.169 L 971.427 707.169 Q 964.592 709.961 957.684 709.961 L 957.684 709.961 L 957.684 709.961 Q 943.133 709.961 930.346 704.817 L 930.346 704.817 L 930.346 704.817 Q 917.558 699.673 907.931 690.193 L 907.931 690.193 L 907.931 690.193 Q 898.304 680.712 892.792 667.117 L 892.792 667.117 L 892.792 667.117 Q 887.28 653.521 887.28 636.618 L 887.28 636.618 L 887.28 549.606 L 927.259 549.606 L 927.259 636.618 L 927.259 636.618 Q 927.259 644.996 929.684 651.243 L 929.684 651.243 L 929.684 651.243 Q 932.109 657.489 936.225 661.678 L 936.225 661.678 L 936.225 661.678 Q 940.34 665.867 945.852 667.925 L 945.852 667.925 L 945.852 667.925 Q 951.364 669.983 957.684 669.983 L 957.684 669.983 L 957.684 669.983 Q 963.857 669.983 969.369 667.117 L 969.369 667.117 L 969.369 667.117 Q 974.881 664.25 978.996 659.547 L 978.996 659.547 L 978.996 659.547 Q 983.112 654.844 985.463 648.891 L 985.463 648.891 L 985.463 648.891 Q 987.815 642.938 987.815 636.618 L 987.815 636.618 L 987.815 549.606 L 1028.235 549.606 L 1028.235 687.179 L 1028.235 687.179 Q 1028.088 703.788 1021.767 718.339 L 1021.767 718.339 L 1021.767 718.339 Q 1015.447 732.89 1004.497 743.767 L 1004.497 743.767 L 1004.497 743.767 Q 993.547 754.643 978.996 760.964 L 978.996 760.964 L 978.996 760.964 Q 964.445 767.284 947.836 767.284 L 947.836 767.284 Z  M 1196.674 577.826 L 1121.42 668.513 L 1121.42 668.513 Q 1123.772 669.248 1126.124 669.468 L 1126.124 669.468 L 1126.124 669.468 Q 1128.475 669.689 1130.827 669.689 L 1130.827 669.689 L 1130.827 669.689 Q 1136.706 669.689 1142.144 668.072 L 1142.144 668.072 L 1142.144 668.072 Q 1147.583 666.455 1152.36 663.442 L 1152.36 663.442 L 1152.36 663.442 Q 1157.136 660.429 1160.884 656.093 L 1160.884 656.093 L 1160.884 656.093 Q 1164.632 651.757 1166.984 646.466 L 1166.984 646.466 L 1196.38 676.009 L 1196.38 676.009 Q 1190.795 683.946 1183.519 690.266 L 1183.519 690.266 L 1183.519 690.266 Q 1176.244 696.586 1167.792 700.996 L 1167.792 700.996 L 1167.792 700.996 Q 1159.341 705.405 1150.008 707.683 L 1150.008 707.683 L 1150.008 707.683 Q 1140.675 709.961 1130.827 709.961 L 1130.827 709.961 L 1130.827 709.961 Q 1114.218 709.961 1099.594 703.788 L 1099.594 703.788 L 1099.594 703.788 Q 1084.969 697.615 1074.019 686.591 L 1074.019 686.591 L 1074.019 686.591 Q 1063.069 675.568 1056.749 660.355 L 1056.749 660.355 L 1056.749 660.355 Q 1050.429 645.143 1050.429 626.917 L 1050.429 626.917 L 1050.429 626.917 Q 1050.429 608.251 1056.749 592.818 L 1056.749 592.818 L 1056.749 592.818 Q 1063.069 577.385 1074.019 566.509 L 1074.019 566.509 L 1074.019 566.509 Q 1084.969 555.632 1099.594 549.606 L 1099.594 549.606 L 1099.594 549.606 Q 1114.218 543.58 1130.827 543.58 L 1130.827 543.58 L 1130.827 543.58 Q 1140.675 543.58 1150.081 545.931 L 1150.081 545.931 L 1150.081 545.931 Q 1159.488 548.283 1167.939 552.692 L 1167.939 552.692 L 1167.939 552.692 Q 1176.391 557.102 1183.74 563.495 L 1183.74 563.495 L 1183.74 563.495 Q 1191.089 569.889 1196.674 577.826 L 1196.674 577.826 Z  M 1095.258 647.789 L 1141.997 585.763 L 1141.997 585.763 Q 1139.205 584.734 1136.486 584.44 L 1136.486 584.44 L 1136.486 584.44 Q 1133.767 584.146 1130.827 584.146 L 1130.827 584.146 L 1130.827 584.146 Q 1122.596 584.146 1115.32 587.159 L 1115.32 587.159 L 1115.32 587.159 Q 1108.045 590.172 1102.68 595.758 L 1102.68 595.758 L 1102.68 595.758 Q 1097.315 601.343 1094.229 609.206 L 1094.229 609.206 L 1094.229 609.206 Q 1091.142 617.07 1091.142 626.917 L 1091.142 626.917 L 1091.142 626.917 Q 1091.142 629.122 1091.363 631.915 L 1091.363 631.915 L 1091.363 631.915 Q 1091.583 634.707 1092.098 637.574 L 1092.098 637.574 L 1092.098 637.574 Q 1092.612 640.44 1093.347 643.085 L 1093.347 643.085 L 1093.347 643.085 Q 1094.082 645.731 1095.258 647.789 L 1095.258 647.789 Z  M 1264.138 506.834 L 1264.138 506.834 L 1264.138 506.834 Q 1264.138 512.42 1262.007 517.27 L 1262.007 517.27 L 1262.007 517.27 Q 1259.876 522.12 1256.201 525.721 L 1256.201 525.721 L 1256.201 525.721 Q 1252.527 529.322 1247.603 531.454 L 1247.603 531.454 L 1247.603 531.454 Q 1242.679 533.585 1237.094 533.585 L 1237.094 533.585 L 1237.094 533.585 Q 1231.508 533.585 1226.585 531.454 L 1226.585 531.454 L 1226.585 531.454 Q 1221.661 529.322 1218.06 525.721 L 1218.06 525.721 L 1218.06 525.721 Q 1214.459 522.12 1212.328 517.27 L 1212.328 517.27 L 1212.328 517.27 Q 1210.196 512.42 1210.196 506.834 L 1210.196 506.834 L 1210.196 506.834 Q 1210.196 501.396 1212.328 496.472 L 1212.328 496.472 L 1212.328 496.472 Q 1214.459 491.549 1218.06 487.947 L 1218.06 487.947 L 1218.06 487.947 Q 1221.661 484.346 1226.585 482.215 L 1226.585 482.215 L 1226.585 482.215 Q 1231.508 480.084 1237.094 480.084 L 1237.094 480.084 L 1237.094 480.084 Q 1242.679 480.084 1247.603 482.215 L 1247.603 482.215 L 1247.603 482.215 Q 1252.527 484.346 1256.201 487.947 L 1256.201 487.947 L 1256.201 487.947 Q 1259.876 491.549 1262.007 496.472 L 1262.007 496.472 L 1262.007 496.472 Q 1264.138 501.396 1264.138 506.834 Z  M 1257.23 549.606 L 1257.23 707.022 L 1216.81 707.022 L 1216.81 549.606 L 1257.23 549.606 Z  M 1338.804 589.584 L 1338.804 707.022 L 1298.679 707.022 L 1298.679 589.584 L 1279.13 589.584 L 1279.13 549.606 L 1298.679 549.606 L 1298.679 542.11 L 1298.679 542.11 Q 1298.679 527.559 1304.19 514.771 L 1304.19 514.771 L 1304.19 514.771 Q 1309.702 501.984 1319.329 492.504 L 1319.329 492.504 L 1319.329 492.504 Q 1328.956 483.024 1341.744 477.512 L 1341.744 477.512 L 1341.744 477.512 Q 1354.531 472 1369.082 472 L 1369.082 472 L 1399.213 472 L 1399.213 511.979 L 1369.082 511.979 L 1369.082 511.979 Q 1362.615 511.979 1357.103 514.257 L 1357.103 514.257 L 1357.103 514.257 Q 1351.591 516.535 1347.55 520.577 L 1347.55 520.577 L 1347.55 520.577 Q 1343.508 524.619 1341.156 530.131 L 1341.156 530.131 L 1341.156 530.131 Q 1338.804 535.643 1338.804 542.11 L 1338.804 542.11 L 1338.804 549.606 L 1388.043 549.606 L 1388.043 589.584 L 1338.804 589.584 Z  M 1465.501 767.284 L 1444.924 766.99 L 1444.924 726.57 L 1467.265 726.864 L 1467.265 726.864 Q 1473.144 726.864 1478.583 724.953 L 1478.583 724.953 L 1478.583 724.953 Q 1484.021 723.043 1488.651 719.662 L 1488.651 719.662 L 1488.651 719.662 Q 1493.281 716.282 1496.808 711.652 L 1496.808 711.652 L 1496.808 711.652 Q 1500.336 707.022 1502.54 701.583 L 1502.54 701.583 L 1502.54 701.583 Q 1495.926 704.376 1489.092 707.169 L 1489.092 707.169 L 1489.092 707.169 Q 1482.257 709.961 1475.349 709.961 L 1475.349 709.961 L 1475.349 709.961 Q 1460.798 709.961 1448.011 704.817 L 1448.011 704.817 L 1448.011 704.817 Q 1435.223 699.673 1425.596 690.193 L 1425.596 690.193 L 1425.596 690.193 Q 1415.969 680.712 1410.457 667.117 L 1410.457 667.117 L 1410.457 667.117 Q 1404.945 653.521 1404.945 636.618 L 1404.945 636.618 L 1404.945 549.606 L 1444.924 549.606 L 1444.924 636.618 L 1444.924 636.618 Q 1444.924 644.996 1447.349 651.243 L 1447.349 651.243 L 1447.349 651.243 Q 1449.774 657.489 1453.89 661.678 L 1453.89 661.678 L 1453.89 661.678 Q 1458.005 665.867 1463.517 667.925 L 1463.517 667.925 L 1463.517 667.925 Q 1469.029 669.983 1475.349 669.983 L 1475.349 669.983 L 1475.349 669.983 Q 1481.522 669.983 1487.034 667.117 L 1487.034 667.117 L 1487.034 667.117 Q 1492.546 664.25 1496.661 659.547 L 1496.661 659.547 L 1496.661 659.547 Q 1500.777 654.844 1503.128 648.891 L 1503.128 648.891 L 1503.128 648.891 Q 1505.48 642.938 1505.48 636.618 L 1505.48 636.618 L 1505.48 549.606 L 1545.9 549.606 L 1545.9 687.179 L 1545.9 687.179 Q 1545.753 703.788 1539.432 718.339 L 1539.432 718.339 L 1539.432 718.339 Q 1533.112 732.89 1522.162 743.767 L 1522.162 743.767 L 1522.162 743.767 Q 1511.212 754.643 1496.661 760.964 L 1496.661 760.964 L 1496.661 760.964 Q 1482.11 767.284 1465.501 767.284 L 1465.501 767.284 Z " fill-rule="evenodd" fill="rgb(72,72,72)"/></g></g></svg>