<svg xmlns="http://www.w3.org/2000/svg" viewBox="619 215 1028 1028" width="50" height="50"><path d=" M 1323.961 810.29 L 1550.89 321.968 L 1489.971 293.658 C 1389.106 246.784 1269.161 290.62 1222.288 391.484 L 1140.466 567.556 L 897.309 245.9 L 870.516 266.155 C 767.002 344.406 749.708 489.444 831.921 589.84 L 1021.519 821.375 L 1140.466 567.556 L 1324.099 810.474 L 1326.526 813.682 C 1435.131 996.009 1397.543 1076.822 1213.672 1056.029 L 1211.178 1052.983 L 1323.961 810.29 L 1323.961 810.29 L 1323.961 810.29 Z  M 1022.154 822.149 L 862.828 1164.996 L 923.746 1193.306 C 1024.612 1240.18 1144.557 1196.344 1191.43 1095.48 L 1211.162 1053.018 L 1022.154 822.149 L 1022.154 822.149 L 1022.154 822.149 Z  M 1339.644 378.907 C 1339.644 352.213 1361.315 330.541 1388.009 330.541 C 1414.703 330.541 1436.375 352.213 1436.375 378.907 C 1436.375 405.6 1414.703 427.272 1388.009 427.272 C 1361.315 427.272 1339.644 405.6 1339.644 378.907 Z " fill="#ffffff" /></svg>
