<?xml version="1.0" standalone="no"?><!-- Generator: Gravit.io -->
<svg xmlns="http://www.w3.org/2000/svg" style="isolation:isolate" viewBox="0 0 256 256" width="256" height="256">
  <defs>
    <clipPath id="_clipPath_DhsixskPOm7xVoDC81nFTzuDEd0RCRLa">
      <rect width="256" height="256"/>
    </clipPath>
  </defs>
  <g clip-path="url(#_clipPath_DhsixskPOm7xVoDC81nFTzuDEd0RCRLa)">
    <rect width="256" height="256" style="fill:rgb(88,96,140)" fill-opacity="0"/>
    <linearGradient id="_lgradient_0" x1="0" y1="0.5" x2="1" y2="0.5"
                    gradientTransform="matrix(254.53,0,0,254.53,1.47,0.652)" gradientUnits="userSpaceOnUse">
      <stop offset="0%" stop-opacity="1" style="stop-color:rgb(8,66,255)"/>
      <stop offset="98.26086956521739%" stop-opacity="1" style="stop-color:rgb(69,165,255)"/>
    </linearGradient>
    <circle vector-effect="non-scaling-stroke" cx="128.73475815929316" cy="127.91685440142692" r="127.26524184070689"
            fill="url(#_lgradient_0)"/>
    <g>
      <g>
        <g>
          <path
            d=" M 145.866 188.547 L 145.866 242.151 L 111.722 242.151 L 111.722 188.547 L 111.722 188.547 Q 100.381 185.681 90.889 179.354 L 90.889 179.354 L 90.889 179.354 Q 81.398 173.026 74.592 164.251 L 74.592 164.251 L 74.592 164.251 Q 67.787 155.476 64.026 144.791 L 64.026 144.791 L 64.026 144.791 Q 60.266 134.106 60.266 122.286 L 60.266 122.286 L 60.266 70.95 L 94.53 70.95 L 94.53 122.286 L 94.53 122.286 Q 94.53 129.33 97.216 135.599 L 97.216 135.599 L 97.216 135.599 Q 99.902 141.866 104.559 146.522 L 104.559 146.522 L 104.559 146.522 Q 109.215 151.179 115.482 153.865 L 115.482 153.865 L 115.482 153.865 Q 121.75 156.55 128.795 156.55 L 128.795 156.55 L 128.795 156.55 Q 135.838 156.55 142.106 153.865 L 142.106 153.865 L 142.106 153.865 Q 148.373 151.179 153.03 146.522 L 153.03 146.522 L 153.03 146.522 Q 157.686 141.866 160.372 135.599 L 160.372 135.599 L 160.372 135.599 Q 163.059 129.33 163.059 122.286 L 163.059 122.286 L 163.059 70.95 L 197.203 70.95 L 197.203 122.286 L 197.203 122.286 Q 197.203 134.106 193.442 144.791 L 193.442 144.791 L 193.442 144.791 Q 189.682 155.476 182.877 164.251 L 182.877 164.251 L 182.877 164.251 Q 176.072 173.026 166.64 179.354 L 166.64 179.354 L 166.64 179.354 Q 157.209 185.681 145.866 188.547 L 145.866 188.547 Z "
            fill="rgb(255,255,255)"/>
          <linearGradient id="_lgradient_1" x1="0" y1="0.5" x2="1" y2="0.5"
                          gradientTransform="matrix(32.172,0,0,32.172,163.653,30.945)" gradientUnits="userSpaceOnUse">
            <stop offset="2.1739130434782608%" stop-opacity="1" style="stop-color:rgb(255,157,0)"/>
            <stop offset="98.69565217391305%" stop-opacity="1" style="stop-color:rgb(255,128,0)"/>
          </linearGradient>
          <path
            d=" M 163.653 47.031 C 163.653 38.153 170.862 30.945 179.739 30.945 C 188.617 30.945 195.825 38.153 195.825 47.031 C 195.825 55.909 188.617 63.117 179.739 63.117 C 170.862 63.117 163.653 55.909 163.653 47.031 Z "
            fill="url(#_lgradient_1)"/>
          <linearGradient id="_lgradient_2" x1="0" y1="0.5" x2="1" y2="0.5"
                          gradientTransform="matrix(32.172,0,0,32.172,61.991,30.945)" gradientUnits="userSpaceOnUse">
            <stop offset="2.1739130434782608%" stop-opacity="1" style="stop-color:rgb(255,157,0)"/>
            <stop offset="98.69565217391305%" stop-opacity="1" style="stop-color:rgb(255,128,0)"/>
          </linearGradient>
          <path
            d=" M 61.991 47.031 C 61.991 38.153 69.2 30.945 78.077 30.945 C 86.955 30.945 94.162 38.153 94.162 47.031 C 94.162 55.909 86.955 63.117 78.077 63.117 C 69.2 63.117 61.991 55.909 61.991 47.031 Z "
            fill="url(#_lgradient_2)"/>
        </g>
      </g>
    </g>
  </g>
</svg>
