<svg xmlns="http://www.w3.org/2000/svg" viewBox="623 210 1024 512" width="500" height="100"><path d=" M 867.096 492.316 L 940.56 334.231 L 920.839 325.067 C 888.186 309.892 849.356 324.083 834.182 356.736 L 807.694 413.736 L 728.976 309.606 L 720.303 316.163 C 686.792 341.495 681.194 388.449 707.808 420.95 L 769.187 495.905 L 807.694 413.736 L 867.141 492.376 L 867.927 493.414 C 898.143 549.211 885.975 575.373 831.393 571.869 L 830.585 570.883 L 867.096 492.316 L 867.096 492.316 L 867.096 492.316 Z  M 769.392 496.155 L 717.814 607.145 L 737.535 616.31 C 770.188 631.484 809.018 617.293 824.192 584.64 L 830.58 570.894 L 769.392 496.155 L 769.392 496.155 L 769.392 496.155 Z  M 872.173 352.664 C 872.173 344.023 879.189 337.007 887.831 337.007 C 896.473 337.007 903.488 344.023 903.488 352.664 C 903.488 361.306 896.473 368.322 887.831 368.322 C 879.189 368.322 872.173 361.306 872.173 352.664 Z " fill-rule="evenodd" fill="rgb(74,195,157)"/><path d=" M 1020.836 604.89 L 1000.259 604.596 L 1000.259 564.176 L 1022.6 564.47 L 1022.6 564.47 Q 1028.479 564.47 1033.918 562.559 L 1033.918 562.559 L 1033.918 562.559 Q 1039.356 560.649 1043.986 557.268 L 1043.986 557.268 L 1043.986 557.268 Q 1048.616 553.888 1052.143 549.258 L 1052.143 549.258 L 1052.143 549.258 Q 1055.671 544.628 1057.875 539.189 L 1057.875 539.189 L 1057.875 539.189 Q 1051.261 541.982 1044.427 544.775 L 1044.427 544.775 L 1044.427 544.775 Q 1037.592 547.567 1030.684 547.567 L 1030.684 547.567 L 1030.684 547.567 Q 1016.133 547.567 1003.346 542.423 L 1003.346 542.423 L 1003.346 542.423 Q 990.558 537.279 980.931 527.799 L 980.931 527.799 L 980.931 527.799 Q 971.304 518.318 965.792 504.723 L 965.792 504.723 L 965.792 504.723 Q 960.28 491.127 960.28 474.224 L 960.28 474.224 L 960.28 387.212 L 1000.259 387.212 L 1000.259 474.224 L 1000.259 474.224 Q 1000.259 482.602 1002.684 488.849 L 1002.684 488.849 L 1002.684 488.849 Q 1005.109 495.095 1009.225 499.284 L 1009.225 499.284 L 1009.225 499.284 Q 1013.34 503.473 1018.852 505.531 L 1018.852 505.531 L 1018.852 505.531 Q 1024.364 507.589 1030.684 507.589 L 1030.684 507.589 L 1030.684 507.589 Q 1036.857 507.589 1042.369 504.723 L 1042.369 504.723 L 1042.369 504.723 Q 1047.881 501.856 1051.996 497.153 L 1051.996 497.153 L 1051.996 497.153 Q 1056.112 492.45 1058.463 486.497 L 1058.463 486.497 L 1058.463 486.497 Q 1060.815 480.544 1060.815 474.224 L 1060.815 474.224 L 1060.815 387.212 L 1101.235 387.212 L 1101.235 524.785 L 1101.235 524.785 Q 1101.088 541.394 1094.767 555.945 L 1094.767 555.945 L 1094.767 555.945 Q 1088.447 570.496 1077.497 581.373 L 1077.497 581.373 L 1077.497 581.373 Q 1066.547 592.249 1051.996 598.57 L 1051.996 598.57 L 1051.996 598.57 Q 1037.445 604.89 1020.836 604.89 L 1020.836 604.89 Z  M 1269.674 415.432 L 1194.42 506.119 L 1194.42 506.119 Q 1196.772 506.854 1199.124 507.074 L 1199.124 507.074 L 1199.124 507.074 Q 1201.475 507.295 1203.827 507.295 L 1203.827 507.295 L 1203.827 507.295 Q 1209.706 507.295 1215.144 505.678 L 1215.144 505.678 L 1215.144 505.678 Q 1220.583 504.061 1225.36 501.048 L 1225.36 501.048 L 1225.36 501.048 Q 1230.136 498.035 1233.884 493.699 L 1233.884 493.699 L 1233.884 493.699 Q 1237.632 489.363 1239.984 484.072 L 1239.984 484.072 L 1269.38 513.615 L 1269.38 513.615 Q 1263.795 521.552 1256.519 527.872 L 1256.519 527.872 L 1256.519 527.872 Q 1249.244 534.192 1240.792 538.602 L 1240.792 538.602 L 1240.792 538.602 Q 1232.341 543.011 1223.008 545.289 L 1223.008 545.289 L 1223.008 545.289 Q 1213.675 547.567 1203.827 547.567 L 1203.827 547.567 L 1203.827 547.567 Q 1187.218 547.567 1172.594 541.394 L 1172.594 541.394 L 1172.594 541.394 Q 1157.969 535.221 1147.019 524.197 L 1147.019 524.197 L 1147.019 524.197 Q 1136.069 513.174 1129.749 497.961 L 1129.749 497.961 L 1129.749 497.961 Q 1123.429 482.749 1123.429 464.523 L 1123.429 464.523 L 1123.429 464.523 Q 1123.429 445.857 1129.749 430.424 L 1129.749 430.424 L 1129.749 430.424 Q 1136.069 414.991 1147.019 404.115 L 1147.019 404.115 L 1147.019 404.115 Q 1157.969 393.238 1172.594 387.212 L 1172.594 387.212 L 1172.594 387.212 Q 1187.218 381.186 1203.827 381.186 L 1203.827 381.186 L 1203.827 381.186 Q 1213.675 381.186 1223.081 383.537 L 1223.081 383.537 L 1223.081 383.537 Q 1232.488 385.889 1240.939 390.298 L 1240.939 390.298 L 1240.939 390.298 Q 1249.391 394.708 1256.74 401.101 L 1256.74 401.101 L 1256.74 401.101 Q 1264.089 407.495 1269.674 415.432 L 1269.674 415.432 Z  M 1168.258 485.395 L 1214.997 423.369 L 1214.997 423.369 Q 1212.205 422.34 1209.486 422.046 L 1209.486 422.046 L 1209.486 422.046 Q 1206.767 421.752 1203.827 421.752 L 1203.827 421.752 L 1203.827 421.752 Q 1195.596 421.752 1188.32 424.765 L 1188.32 424.765 L 1188.32 424.765 Q 1181.045 427.778 1175.68 433.364 L 1175.68 433.364 L 1175.68 433.364 Q 1170.315 438.949 1167.229 446.812 L 1167.229 446.812 L 1167.229 446.812 Q 1164.142 454.676 1164.142 464.523 L 1164.142 464.523 L 1164.142 464.523 Q 1164.142 466.728 1164.363 469.521 L 1164.363 469.521 L 1164.363 469.521 Q 1164.583 472.313 1165.098 475.18 L 1165.098 475.18 L 1165.098 475.18 Q 1165.612 478.046 1166.347 480.691 L 1166.347 480.691 L 1166.347 480.691 Q 1167.082 483.337 1168.258 485.395 L 1168.258 485.395 Z  M 1337.138 344.44 L 1337.138 344.44 L 1337.138 344.44 Q 1337.138 350.026 1335.007 354.876 L 1335.007 354.876 L 1335.007 354.876 Q 1332.876 359.726 1329.201 363.327 L 1329.201 363.327 L 1329.201 363.327 Q 1325.527 366.928 1320.603 369.06 L 1320.603 369.06 L 1320.603 369.06 Q 1315.679 371.191 1310.094 371.191 L 1310.094 371.191 L 1310.094 371.191 Q 1304.508 371.191 1299.585 369.06 L 1299.585 369.06 L 1299.585 369.06 Q 1294.661 366.928 1291.06 363.327 L 1291.06 363.327 L 1291.06 363.327 Q 1287.459 359.726 1285.328 354.876 L 1285.328 354.876 L 1285.328 354.876 Q 1283.196 350.026 1283.196 344.44 L 1283.196 344.44 L 1283.196 344.44 Q 1283.196 339.002 1285.328 334.078 L 1285.328 334.078 L 1285.328 334.078 Q 1287.459 329.155 1291.06 325.553 L 1291.06 325.553 L 1291.06 325.553 Q 1294.661 321.952 1299.585 319.821 L 1299.585 319.821 L 1299.585 319.821 Q 1304.508 317.69 1310.094 317.69 L 1310.094 317.69 L 1310.094 317.69 Q 1315.679 317.69 1320.603 319.821 L 1320.603 319.821 L 1320.603 319.821 Q 1325.527 321.952 1329.201 325.553 L 1329.201 325.553 L 1329.201 325.553 Q 1332.876 329.155 1335.007 334.078 L 1335.007 334.078 L 1335.007 334.078 Q 1337.138 339.002 1337.138 344.44 Z  M 1330.23 387.212 L 1330.23 544.628 L 1289.81 544.628 L 1289.81 387.212 L 1330.23 387.212 Z  M 1411.804 427.19 L 1411.804 544.628 L 1371.679 544.628 L 1371.679 427.19 L 1352.13 427.19 L 1352.13 387.212 L 1371.679 387.212 L 1371.679 379.716 L 1371.679 379.716 Q 1371.679 365.165 1377.19 352.377 L 1377.19 352.377 L 1377.19 352.377 Q 1382.702 339.59 1392.329 330.11 L 1392.329 330.11 L 1392.329 330.11 Q 1401.956 320.63 1414.744 315.118 L 1414.744 315.118 L 1414.744 315.118 Q 1427.531 309.606 1442.082 309.606 L 1442.082 309.606 L 1472.213 309.606 L 1472.213 349.585 L 1442.082 349.585 L 1442.082 349.585 Q 1435.615 349.585 1430.103 351.863 L 1430.103 351.863 L 1430.103 351.863 Q 1424.591 354.141 1420.55 358.183 L 1420.55 358.183 L 1420.55 358.183 Q 1416.508 362.225 1414.156 367.737 L 1414.156 367.737 L 1414.156 367.737 Q 1411.804 373.249 1411.804 379.716 L 1411.804 379.716 L 1411.804 387.212 L 1461.043 387.212 L 1461.043 427.19 L 1411.804 427.19 Z  M 1538.501 604.89 L 1517.924 604.596 L 1517.924 564.176 L 1540.265 564.47 L 1540.265 564.47 Q 1546.144 564.47 1551.583 562.559 L 1551.583 562.559 L 1551.583 562.559 Q 1557.021 560.649 1561.651 557.268 L 1561.651 557.268 L 1561.651 557.268 Q 1566.281 553.888 1569.808 549.258 L 1569.808 549.258 L 1569.808 549.258 Q 1573.336 544.628 1575.54 539.189 L 1575.54 539.189 L 1575.54 539.189 Q 1568.926 541.982 1562.092 544.775 L 1562.092 544.775 L 1562.092 544.775 Q 1555.257 547.567 1548.349 547.567 L 1548.349 547.567 L 1548.349 547.567 Q 1533.798 547.567 1521.011 542.423 L 1521.011 542.423 L 1521.011 542.423 Q 1508.223 537.279 1498.596 527.799 L 1498.596 527.799 L 1498.596 527.799 Q 1488.969 518.318 1483.457 504.723 L 1483.457 504.723 L 1483.457 504.723 Q 1477.945 491.127 1477.945 474.224 L 1477.945 474.224 L 1477.945 387.212 L 1517.924 387.212 L 1517.924 474.224 L 1517.924 474.224 Q 1517.924 482.602 1520.349 488.849 L 1520.349 488.849 L 1520.349 488.849 Q 1522.774 495.095 1526.89 499.284 L 1526.89 499.284 L 1526.89 499.284 Q 1531.005 503.473 1536.517 505.531 L 1536.517 505.531 L 1536.517 505.531 Q 1542.029 507.589 1548.349 507.589 L 1548.349 507.589 L 1548.349 507.589 Q 1554.522 507.589 1560.034 504.723 L 1560.034 504.723 L 1560.034 504.723 Q 1565.546 501.856 1569.661 497.153 L 1569.661 497.153 L 1569.661 497.153 Q 1573.777 492.45 1576.128 486.497 L 1576.128 486.497 L 1576.128 486.497 Q 1578.48 480.544 1578.48 474.224 L 1578.48 474.224 L 1578.48 387.212 L 1618.9 387.212 L 1618.9 524.785 L 1618.9 524.785 Q 1618.753 541.394 1612.432 555.945 L 1612.432 555.945 L 1612.432 555.945 Q 1606.112 570.496 1595.162 581.373 L 1595.162 581.373 L 1595.162 581.373 Q 1584.212 592.249 1569.661 598.57 L 1569.661 598.57 L 1569.661 598.57 Q 1555.11 604.89 1538.501 604.89 L 1538.501 604.89 Z " fill-rule="evenodd" fill="rgb(68,68,68)"/></svg>